<?xml version="1.0" encoding="UTF-8"?><svg id="Layer_2" xmlns="http://www.w3.org/2000/svg" viewBox="0 0 151.42 50.71"><defs><style>.cls-1{fill:#0bac4b;}.cls-2{fill:#175aa9;}.cls-3{fill:#c72026;}.cls-4{fill:#4d4d4e;}</style></defs><g id="Layer_1-2"><g><path class="cls-4" d="m37.62,12.25v-.57c0-5,3.32-8.52,8.37-8.52,4.3,0,7.19,2.59,7.54,6.49h-2.97c-.35-2.56-2.06-4.09-4.6-4.09-3.34,0-5.33,2.51-5.33,6.13v.57c0,3.62,2.01,6.11,5.33,6.11,2.71,0,4.45-1.72,4.57-4.31h2.99c-.28,3.88-3.12,6.73-7.56,6.73-5.05,0-8.34-3.47-8.34-8.52Z"/><path class="cls-4" d="m65.47,20.46l-1.17-2.92h-5.9l-1.17,2.92h-2.54l5.34-12.57h2.71l5.36,12.57h-2.63Zm-6.29-4.8h4.36l-2.19-5.4-2.17,5.4Z"/><path class="cls-4" d="m69.9,20.46V7.89h5.97c2.84,0,4.86,1.36,4.86,3.87v.25c0,1.98-1.26,3.25-3.21,3.66l3.49,4.8h-2.82l-3.23-4.59h-2.56v4.59h-2.5Zm2.5-6.58h3.25c1.5,0,2.5-.6,2.5-1.88v-.25c0-1.3-1-1.88-2.5-1.88h-3.25v4.01Z"/><path class="cls-4" d="m82.82,20.46V7.89h5.81c2.76,0,4.58,1.01,4.58,3.25v.17c0,1.08-.59,2.05-1.69,2.54,1.45.48,2.3,1.59,2.3,2.92v.21c0,2.19-1.97,3.49-4.75,3.49h-6.25Zm2.47-7.3h3.08c1.43,0,2.26-.48,2.26-1.59v-.17c0-1.01-.63-1.53-2.3-1.53h-3.04v3.29Zm0,5.31h3.49c1.48,0,2.47-.56,2.47-1.67v-.19c0-1.08-.82-1.65-2.39-1.65h-3.58v3.52Z"/><path class="cls-4" d="m95.52,14.39v-.41c0-3.68,2.6-6.31,6.71-6.31s6.68,2.62,6.68,6.31v.41c0,3.68-2.58,6.31-6.68,6.31s-6.71-2.63-6.71-6.31Zm10.83,0v-.41c0-2.61-1.52-4.3-4.12-4.3s-4.1,1.72-4.1,4.3v.41c0,2.61,1.5,4.3,4.1,4.3s4.12-1.7,4.12-4.3Z"/><path class="cls-4" d="m111.21,20.46V7.89h2.95l6.29,9.3V7.89h2.39v12.57h-2.8l-6.42-9.57v9.57h-2.41Z"/><path class="cls-4" d="m37.47,37.93h2.92c.25,2.37,2.06,3.38,4.52,3.38,2.24,0,3.85-.84,3.85-2.54v-.12c0-1.46-1.08-2.2-4.7-2.82-4.4-.74-5.96-2.3-5.96-4.84v-.17c0-2.78,2.54-4.81,6.43-4.81s6.46,1.77,6.81,5.24h-2.94c-.25-1.96-1.71-2.94-3.92-2.94s-3.52.96-3.52,2.44v.12c0,1.32.75,2.06,4.3,2.63,4.27.69,6.38,2.11,6.38,4.88v.19c0,2.94-2.64,5.05-6.86,5.05s-7.11-2.06-7.31-5.7Z"/><path class="cls-4" d="m53.36,37.23v-.41c0-3.68,2.6-6.31,6.71-6.31s6.68,2.62,6.68,6.31v.41c0,3.68-2.58,6.31-6.68,6.31s-6.71-2.63-6.71-6.31Zm10.83,0v-.41c0-2.61-1.52-4.3-4.12-4.3s-4.1,1.72-4.1,4.3v.41c0,2.61,1.5,4.3,4.1,4.3s4.12-1.7,4.12-4.3Z"/><path class="cls-4" d="m69.05,43.31v-12.57h2.52v10.56h5.73v2.01h-8.25Z"/><path class="cls-4" d="m78.86,38.47v-7.73h2.52v7.69c0,1.99,1.04,3.08,3.19,3.08s3.23-1.08,3.23-3.1v-7.67h2.47v7.71c0,3.22-1.93,5.09-5.71,5.09s-5.71-1.84-5.71-5.07Z"/><path class="cls-4" d="m96.27,43.31v-10.59h-4.06v-1.98h10.63v1.98h-4.06v10.59h-2.52Z"/><path class="cls-4" d="m104.95,43.31v-12.57h2.52v12.57h-2.52Z"/><path class="cls-4" d="m109.86,37.23v-.41c0-3.68,2.6-6.31,6.71-6.31s6.68,2.62,6.68,6.31v.41c0,3.68-2.58,6.31-6.68,6.31s-6.71-2.63-6.71-6.31Zm10.83,0v-.41c0-2.61-1.52-4.3-4.12-4.3s-4.1,1.72-4.1,4.3v.41c0,2.61,1.5,4.3,4.1,4.3s4.12-1.7,4.12-4.3Z"/><path class="cls-4" d="m125.55,43.31v-12.57h2.95l6.29,9.3v-9.3h2.39v12.57h-2.8l-6.42-9.57v9.57h-2.41Z"/><path class="cls-4" d="m139.35,39.28h2.47c.2,1.61,1.54,2.34,3.43,2.34,1.67,0,2.89-.6,2.89-1.7v-.1c0-.95-.74-1.47-3.58-1.9-3.8-.62-4.73-1.86-4.73-3.62v-.12c0-2.13,2.08-3.66,5.12-3.66s5.14,1.36,5.4,3.95h-2.47c-.2-1.36-1.28-2.05-2.97-2.05s-2.63.68-2.63,1.65v.08c0,.85.52,1.38,3.28,1.78,3.67.56,5.03,1.72,5.03,3.66v.14c0,2.27-2.15,3.8-5.42,3.8s-5.64-1.49-5.81-4.26Z"/></g><polygon class="cls-3" points="17.56 12.12 18.05 12.97 23.08 21.69 28.25 12.76 22.73 3.18 11.68 3.18 6.51 12.11 16.58 12.12 17.56 12.12"/><polygon class="cls-2" points="18.04 33.81 17.55 34.66 16.57 34.66 6.5 34.66 11.65 43.59 22.7 43.59 28.24 34.03 23.08 25.09 18.04 33.81"/><polygon class="cls-1" points="16.57 32.96 22.1 23.39 16.58 13.82 5.53 13.81 0 23.38 5.52 32.95 16.57 32.96"/></g></svg>